<?xml version="1.0" encoding="UTF-8" standalone="no"?>
<svg
   xmlns:dc="http://purl.org/dc/elements/1.1/"
   xmlns:cc="http://creativecommons.org/ns#"
   xmlns:rdf="http://www.w3.org/1999/02/22-rdf-syntax-ns#"
   xmlns:svg="http://www.w3.org/2000/svg"
   xmlns="http://www.w3.org/2000/svg"
   xmlns:sodipodi="http://sodipodi.sourceforge.net/DTD/sodipodi-0.dtd"
   xmlns:inkscape="http://www.inkscape.org/namespaces/inkscape"
   width="610"
   height="610"
   id="svg2"
   version="1.1"
   inkscape:version="0.91 r13725"
   sodipodi:docname="paper.svg">
  <metadata
     id="metadata12">
    <rdf:RDF>
      <cc:Work
         rdf:about="">
        <dc:format>image/svg+xml</dc:format>
        <dc:type
           rdf:resource="http://purl.org/dc/dcmitype/StillImage" />
        <dc:title />
      </cc:Work>
    </rdf:RDF>
  </metadata>
  <defs
     id="defs10" />
  <sodipodi:namedview
     pagecolor="#ffffff"
     bordercolor="#666666"
     borderopacity="1"
     objecttolerance="10"
     gridtolerance="10"
     guidetolerance="10"
     inkscape:pageopacity="0"
     inkscape:pageshadow="2"
     inkscape:window-width="1228"
     inkscape:window-height="748"
     id="namedview8"
     showgrid="false"
     inkscape:zoom="2.1885535"
     inkscape:cx="269.23177"
     inkscape:cy="363.03465"
     inkscape:window-x="48"
     inkscape:window-y="12"
     inkscape:window-maximized="0"
     inkscape:current-layer="svg2" />
  <text
     xml:space="preserve"
     style="font-style:normal;font-weight:normal;font-size:40px;line-height:125%;font-family:sans-serif;letter-spacing:0px;word-spacing:0px;fill:#000000;fill-opacity:1;stroke:none;stroke-width:1px;stroke-linecap:butt;stroke-linejoin:miter;stroke-opacity:1"
     x="283.02966"
     y="289.49152"
     id="text4200"
     sodipodi:linespacing="125%"><tspan
       sodipodi:role="line"
       id="tspan4202"
       x="283.02966"
       y="289.49152" /></text>
  <flowRoot
     xml:space="preserve"
     id="flowRoot4204"
     style="fill:black;stroke:none;stroke-opacity:1;stroke-width:1px;stroke-linejoin:miter;stroke-linecap:butt;fill-opacity:1;font-family:sans-serif;font-style:normal;font-weight:normal;font-size:40px;line-height:125%;letter-spacing:0px;word-spacing:0px"><flowRegion
       id="flowRegion4206"><rect
         id="rect4208"
         width="219.70338"
         height="54.279659"
         x="174.47034"
         y="316.63135" /></flowRegion><flowPara
       id="flowPara4210" /></flowRoot>  <flowRoot
     xml:space="preserve"
     id="flowRoot4216"
     style="fill:black;stroke:none;stroke-opacity:1;stroke-width:1px;stroke-linejoin:miter;stroke-linecap:butt;fill-opacity:1;font-family:sans-serif;font-style:normal;font-weight:normal;font-size:40px;line-height:125%;letter-spacing:0px;word-spacing:0px"><flowRegion
       id="flowRegion4218"><rect
         id="rect4220"
         width="452.33051"
         height="462.66949"
         x="37.478813"
         y="62.033897" /></flowRegion><flowPara
       id="flowPara4222" /></flowRoot>  <g
     inkscape:groupmode="layer"
     id="layer2"
     inkscape:label="Layer 2"
     style="display:inline">
    <g
       id="layer4"
       transform="translate(1.9385596,-1.2923729)">
      <rect
         id="rect5840"
         rx="1.5381"
         ry="1.5381"
         height="600"
         width="600"
         y="5"
         x="5"
         style="fill:none;stroke-width:10;stroke-linejoin:round" />
      <g
         id="g5458"
         transform="matrix(7.6858,0,0,7.6858,-2642,-1071.3)">
        <path
           id="path4670"
           d="m 365.19,192.73 c 0,0 -12.85692,-16.6244 17.83318,-27.8984 17.5,-6.4286 22.52382,-17.1016 22.52382,-17.1016 0,0 3.5714,45 -26.429,49.286 0,0 -8.1318,1.8054 -12.362,-1.0988 0,0 -4.23,8.6494 -3.6618,12.816 l -3.9143,0.1894 c 0,0 6.566,-17.236 9.5965,-19.256 l -3.5871,3.0634 z"
           inkscape:connector-curvature="0"
           style="fill:#5fbf00"
           sodipodi:nodetypes="cscccccccc" />
      </g>
    </g>
  </g>
  <g
     inkscape:groupmode="layer"
     id="layer1"
     inkscape:label="Layer 1"
     style="display:none">
    <g
       transform="translate(14.338982,-36.247881)"
       style="font-style:normal;font-weight:normal;font-size:40px;line-height:125%;font-family:sans-serif;letter-spacing:0px;word-spacing:0px;display:inline;opacity:1;fill:#808080;fill-opacity:1;stroke:none;stroke-width:1px;stroke-linecap:butt;stroke-linejoin:miter;stroke-opacity:1"
       id="flowRoot4224">
      <path
         d="m 119.98242,97.291841 6.44531,0 0,-22.246093 -7.01171,1.40625 0,-3.59375 6.97265,-1.40625 3.94531,0 0,25.839843 6.44532,0 0,3.320309 -16.79688,0 0,-3.320309 z"
         id="path4238"
         inkscape:connector-curvature="0"
         style="fill:#808080" />
      <path
         d="m 153.20508,74.049654 q -3.04688,0 -4.58985,3.007812 -1.52343,2.988282 -1.52343,9.003907 0,5.996093 1.52343,9.003906 1.54297,2.988281 4.58985,2.988281 3.0664,0 4.58984,-2.988281 1.54297,-3.007813 1.54297,-9.003906 0,-6.015625 -1.54297,-9.003907 -1.52344,-3.007812 -4.58984,-3.007812 z m 0,-3.125 q 4.90234,0 7.48047,3.886719 2.59765,3.867187 2.59765,11.25 0,7.363281 -2.59765,11.25 -2.57813,3.867187 -7.48047,3.867187 -4.90235,0 -7.5,-3.867187 -2.57813,-3.886719 -2.57813,-11.25 0,-7.382813 2.57813,-11.25 2.59765,-3.886719 7.5,-3.886719 z"
         id="path4240"
         inkscape:connector-curvature="0"
         style="fill:#808080" />
      <path
         d="m 170.91992,97.291841 6.44531,0 0,-22.246093 -7.01171,1.40625 0,-3.59375 6.97265,-1.40625 3.94531,0 0,25.839843 6.44532,0 0,3.320309 -16.79688,0 0,-3.320309 z"
         id="path4242"
         inkscape:connector-curvature="0"
         style="fill:#808080" />
      <path
         d="m 204.14258,74.049654 q -3.04688,0 -4.58985,3.007812 -1.52343,2.988282 -1.52343,9.003907 0,5.996093 1.52343,9.003906 1.54297,2.988281 4.58985,2.988281 3.0664,0 4.58984,-2.988281 1.54297,-3.007813 1.54297,-9.003906 0,-6.015625 -1.54297,-9.003907 -1.52344,-3.007812 -4.58984,-3.007812 z m 0,-3.125 q 4.90234,0 7.48047,3.886719 2.59765,3.867187 2.59765,11.25 0,7.363281 -2.59765,11.25 -2.57813,3.867187 -7.48047,3.867187 -4.90235,0 -7.5,-3.867187 -2.57813,-3.886719 -2.57813,-11.25 0,-7.382813 2.57813,-11.25 2.59765,-3.886719 7.5,-3.886719 z"
         id="path4244"
         inkscape:connector-curvature="0"
         style="fill:#808080" />
      <path
         d="m 221.85742,97.291841 6.44531,0 0,-22.246093 -7.01171,1.40625 0,-3.59375 6.97265,-1.40625 3.94531,0 0,25.839843 6.44532,0 0,3.320309 -16.79688,0 0,-3.320309 z"
         id="path4246"
         inkscape:connector-curvature="0"
         style="fill:#808080" />
      <path
         d="m 255.08008,74.049654 q -3.04688,0 -4.58985,3.007812 -1.52343,2.988282 -1.52343,9.003907 0,5.996093 1.52343,9.003906 1.54297,2.988281 4.58985,2.988281 3.0664,0 4.58984,-2.988281 1.54297,-3.007813 1.54297,-9.003906 0,-6.015625 -1.54297,-9.003907 -1.52344,-3.007812 -4.58984,-3.007812 z m 0,-3.125 q 4.90234,0 7.48047,3.886719 2.59765,3.867187 2.59765,11.25 0,7.363281 -2.59765,11.25 -2.57813,3.867187 -7.48047,3.867187 -4.90235,0 -7.5,-3.867187 -2.57813,-3.886719 -2.57813,-11.25 0,-7.382813 2.57813,-11.25 2.59765,-3.886719 7.5,-3.886719 z"
         id="path4248"
         inkscape:connector-curvature="0"
         style="fill:#808080" />
      <path
         d="m 272.79492,97.291841 6.44531,0 0,-22.246093 -7.01171,1.40625 0,-3.59375 6.97265,-1.40625 3.94531,0 0,25.839843 6.44532,0 0,3.320309 -16.79688,0 0,-3.320309 z"
         id="path4250"
         inkscape:connector-curvature="0"
         style="fill:#808080" />
      <path
         d="m 306.01758,74.049654 q -3.04688,0 -4.58985,3.007812 -1.52343,2.988282 -1.52343,9.003907 0,5.996093 1.52343,9.003906 1.54297,2.988281 4.58985,2.988281 3.0664,0 4.58984,-2.988281 1.54297,-3.007813 1.54297,-9.003906 0,-6.015625 -1.54297,-9.003907 -1.52344,-3.007812 -4.58984,-3.007812 z m 0,-3.125 q 4.90234,0 7.48047,3.886719 2.59765,3.867187 2.59765,11.25 0,7.363281 -2.59765,11.25 -2.57813,3.867187 -7.48047,3.867187 -4.90235,0 -7.5,-3.867187 -2.57813,-3.886719 -2.57813,-11.25 0,-7.382813 2.57813,-11.25 2.59765,-3.886719 7.5,-3.886719 z"
         id="path4252"
         inkscape:connector-curvature="0"
         style="fill:#808080" />
      <path
         d="m 323.73242,97.291841 6.44531,0 0,-22.246093 -7.01171,1.40625 0,-3.59375 6.97265,-1.40625 3.94531,0 0,25.839843 6.44532,0 0,3.320309 -16.79688,0 0,-3.320309 z"
         id="path4254"
         inkscape:connector-curvature="0"
         style="fill:#808080" />
      <path
         d="m 349.20117,97.291841 6.44531,0 0,-22.246093 -7.01171,1.40625 0,-3.59375 6.97265,-1.40625 3.94531,0 0,25.839843 6.44532,0 0,3.320309 -16.79688,0 0,-3.320309 z"
         id="path4256"
         inkscape:connector-curvature="0"
         style="fill:#808080" />
      <path
         d="m 374.66992,97.291841 6.44531,0 0,-22.246093 -7.01171,1.40625 0,-3.59375 6.97265,-1.40625 3.94531,0 0,25.839843 6.44532,0 0,3.320309 -16.79688,0 0,-3.320309 z"
         id="path4258"
         inkscape:connector-curvature="0"
         style="fill:#808080" />
      <path
         d="m 407.89258,74.049654 q -3.04688,0 -4.58985,3.007812 -1.52343,2.988282 -1.52343,9.003907 0,5.996093 1.52343,9.003906 1.54297,2.988281 4.58985,2.988281 3.0664,0 4.58984,-2.988281 1.54297,-3.007813 1.54297,-9.003906 0,-6.015625 -1.54297,-9.003907 -1.52344,-3.007812 -4.58984,-3.007812 z m 0,-3.125 q 4.90234,0 7.48047,3.886719 2.59765,3.867187 2.59765,11.25 0,7.363281 -2.59765,11.25 -2.57813,3.867187 -7.48047,3.867187 -4.90235,0 -7.5,-3.867187 -2.57813,-3.886719 -2.57813,-11.25 0,-7.382813 2.57813,-11.25 2.59765,-3.886719 7.5,-3.886719 z"
         id="path4260"
         inkscape:connector-curvature="0"
         style="fill:#808080" />
      <path
         d="m 425.60742,97.291841 6.44531,0 0,-22.246093 -7.01171,1.40625 0,-3.59375 6.97265,-1.40625 3.94531,0 0,25.839843 6.44532,0 0,3.320309 -16.79688,0 0,-3.320309 z"
         id="path4262"
         inkscape:connector-curvature="0"
         style="fill:#808080" />
      <path
         d="m 458.83008,74.049654 q -3.04688,0 -4.58985,3.007812 -1.52343,2.988282 -1.52343,9.003907 0,5.996093 1.52343,9.003906 1.54297,2.988281 4.58985,2.988281 3.0664,0 4.58984,-2.988281 1.54297,-3.007813 1.54297,-9.003906 0,-6.015625 -1.54297,-9.003907 -1.52344,-3.007812 -4.58984,-3.007812 z m 0,-3.125 q 4.90234,0 7.48047,3.886719 2.59765,3.867187 2.59765,11.25 0,7.363281 -2.59765,11.25 -2.57813,3.867187 -7.48047,3.867187 -4.90235,0 -7.5,-3.867187 -2.57813,-3.886719 -2.57813,-11.25 0,-7.382813 2.57813,-11.25 2.59765,-3.886719 7.5,-3.886719 z"
         id="path4264"
         inkscape:connector-curvature="0"
         style="fill:#808080" />
      <path
         d="m 119.98242,147.29184 6.44531,0 0,-22.24609 -7.01171,1.40625 0,-3.59375 6.97265,-1.40625 3.94531,0 0,25.83984 6.44532,0 0,3.32031 -16.79688,0 0,-3.32031 z"
         id="path4266"
         inkscape:connector-curvature="0"
         style="fill:#808080" />
      <path
         d="m 153.20508,124.04965 q -3.04688,0 -4.58985,3.00782 -1.52343,2.98828 -1.52343,9.0039 0,5.9961 1.52343,9.00391 1.54297,2.98828 4.58985,2.98828 3.0664,0 4.58984,-2.98828 1.54297,-3.00781 1.54297,-9.00391 0,-6.01562 -1.54297,-9.0039 -1.52344,-3.00782 -4.58984,-3.00782 z m 0,-3.125 q 4.90234,0 7.48047,3.88672 2.59765,3.86719 2.59765,11.25 0,7.36328 -2.59765,11.25 -2.57813,3.86719 -7.48047,3.86719 -4.90235,0 -7.5,-3.86719 -2.57813,-3.88672 -2.57813,-11.25 0,-7.38281 2.57813,-11.25 2.59765,-3.88672 7.5,-3.88672 z"
         id="path4268"
         inkscape:connector-curvature="0"
         style="fill:#808080" />
      <path
         d="m 170.91992,147.29184 6.44531,0 0,-22.24609 -7.01171,1.40625 0,-3.59375 6.97265,-1.40625 3.94531,0 0,25.83984 6.44532,0 0,3.32031 -16.79688,0 0,-3.32031 z"
         id="path4270"
         inkscape:connector-curvature="0"
         style="fill:#808080" />
      <path
         d="m 196.38867,147.29184 6.44531,0 0,-22.24609 -7.01171,1.40625 0,-3.59375 6.97265,-1.40625 3.94531,0 0,25.83984 6.44532,0 0,3.32031 -16.79688,0 0,-3.32031 z"
         id="path4272"
         inkscape:connector-curvature="0"
         style="fill:#808080" />
      <path
         d="m 229.61133,124.04965 q -3.04688,0 -4.58985,3.00782 -1.52343,2.98828 -1.52343,9.0039 0,5.9961 1.52343,9.00391 1.54297,2.98828 4.58985,2.98828 3.0664,0 4.58984,-2.98828 1.54297,-3.00781 1.54297,-9.00391 0,-6.01562 -1.54297,-9.0039 -1.52344,-3.00782 -4.58984,-3.00782 z m 0,-3.125 q 4.90234,0 7.48047,3.88672 2.59765,3.86719 2.59765,11.25 0,7.36328 -2.59765,11.25 -2.57813,3.86719 -7.48047,3.86719 -4.90235,0 -7.5,-3.86719 -2.57813,-3.88672 -2.57813,-11.25 0,-7.38281 2.57813,-11.25 2.59765,-3.88672 7.5,-3.88672 z"
         id="path4274"
         inkscape:connector-curvature="0"
         style="fill:#808080" />
      <path
         d="m 247.32617,147.29184 6.44531,0 0,-22.24609 -7.01171,1.40625 0,-3.59375 6.97265,-1.40625 3.94531,0 0,25.83984 6.44532,0 0,3.32031 -16.79688,0 0,-3.32031 z"
         id="path4276"
         inkscape:connector-curvature="0"
         style="fill:#808080" />
      <path
         d="m 280.54883,124.04965 q -3.04688,0 -4.58985,3.00782 -1.52343,2.98828 -1.52343,9.0039 0,5.9961 1.52343,9.00391 1.54297,2.98828 4.58985,2.98828 3.0664,0 4.58984,-2.98828 1.54297,-3.00781 1.54297,-9.00391 0,-6.01562 -1.54297,-9.0039 -1.52344,-3.00782 -4.58984,-3.00782 z m 0,-3.125 q 4.90234,0 7.48047,3.88672 2.59765,3.86719 2.59765,11.25 0,7.36328 -2.59765,11.25 -2.57813,3.86719 -7.48047,3.86719 -4.90235,0 -7.5,-3.86719 -2.57813,-3.88672 -2.57813,-11.25 0,-7.38281 2.57813,-11.25 2.59765,-3.88672 7.5,-3.88672 z"
         id="path4278"
         inkscape:connector-curvature="0"
         style="fill:#808080" />
      <path
         d="m 298.26367,147.29184 6.44531,0 0,-22.24609 -7.01171,1.40625 0,-3.59375 6.97265,-1.40625 3.94531,0 0,25.83984 6.44532,0 0,3.32031 -16.79688,0 0,-3.32031 z"
         id="path4280"
         inkscape:connector-curvature="0"
         style="fill:#808080" />
      <path
         d="m 331.48633,124.04965 q -3.04688,0 -4.58985,3.00782 -1.52343,2.98828 -1.52343,9.0039 0,5.9961 1.52343,9.00391 1.54297,2.98828 4.58985,2.98828 3.0664,0 4.58984,-2.98828 1.54297,-3.00781 1.54297,-9.00391 0,-6.01562 -1.54297,-9.0039 -1.52344,-3.00782 -4.58984,-3.00782 z m 0,-3.125 q 4.90234,0 7.48047,3.88672 2.59765,3.86719 2.59765,11.25 0,7.36328 -2.59765,11.25 -2.57813,3.86719 -7.48047,3.86719 -4.90235,0 -7.5,-3.86719 -2.57813,-3.88672 -2.57813,-11.25 0,-7.38281 2.57813,-11.25 2.59765,-3.88672 7.5,-3.88672 z"
         id="path4282"
         inkscape:connector-curvature="0"
         style="fill:#808080" />
      <path
         d="m 349.20117,147.29184 6.44531,0 0,-22.24609 -7.01171,1.40625 0,-3.59375 6.97265,-1.40625 3.94531,0 0,25.83984 6.44532,0 0,3.32031 -16.79688,0 0,-3.32031 z"
         id="path4284"
         inkscape:connector-curvature="0"
         style="fill:#808080" />
      <path
         d="m 382.42383,124.04965 q -3.04688,0 -4.58985,3.00782 -1.52343,2.98828 -1.52343,9.0039 0,5.9961 1.52343,9.00391 1.54297,2.98828 4.58985,2.98828 3.0664,0 4.58984,-2.98828 1.54297,-3.00781 1.54297,-9.00391 0,-6.01562 -1.54297,-9.0039 -1.52344,-3.00782 -4.58984,-3.00782 z m 0,-3.125 q 4.90234,0 7.48047,3.88672 2.59765,3.86719 2.59765,11.25 0,7.36328 -2.59765,11.25 -2.57813,3.86719 -7.48047,3.86719 -4.90235,0 -7.5,-3.86719 -2.57813,-3.88672 -2.57813,-11.25 0,-7.38281 2.57813,-11.25 2.59765,-3.88672 7.5,-3.88672 z"
         id="path4286"
         inkscape:connector-curvature="0"
         style="fill:#808080" />
      <path
         d="m 400.13867,147.29184 6.44531,0 0,-22.24609 -7.01171,1.40625 0,-3.59375 6.97265,-1.40625 3.94531,0 0,25.83984 6.44532,0 0,3.32031 -16.79688,0 0,-3.32031 z"
         id="path4288"
         inkscape:connector-curvature="0"
         style="fill:#808080" />
      <path
         d="m 425.60742,147.29184 6.44531,0 0,-22.24609 -7.01171,1.40625 0,-3.59375 6.97265,-1.40625 3.94531,0 0,25.83984 6.44532,0 0,3.32031 -16.79688,0 0,-3.32031 z"
         id="path4290"
         inkscape:connector-curvature="0"
         style="fill:#808080" />
      <path
         d="m 458.83008,124.04965 q -3.04688,0 -4.58985,3.00782 -1.52343,2.98828 -1.52343,9.0039 0,5.9961 1.52343,9.00391 1.54297,2.98828 4.58985,2.98828 3.0664,0 4.58984,-2.98828 1.54297,-3.00781 1.54297,-9.00391 0,-6.01562 -1.54297,-9.0039 -1.52344,-3.00782 -4.58984,-3.00782 z m 0,-3.125 q 4.90234,0 7.48047,3.88672 2.59765,3.86719 2.59765,11.25 0,7.36328 -2.59765,11.25 -2.57813,3.86719 -7.48047,3.86719 -4.90235,0 -7.5,-3.86719 -2.57813,-3.88672 -2.57813,-11.25 0,-7.38281 2.57813,-11.25 2.59765,-3.88672 7.5,-3.88672 z"
         id="path4292"
         inkscape:connector-curvature="0"
         style="fill:#808080" />
      <path
         d="m 119.98242,197.29184 6.44531,0 0,-22.24609 -7.01171,1.40625 0,-3.59375 6.97265,-1.40625 3.94531,0 0,25.83984 6.44532,0 0,3.32031 -16.79688,0 0,-3.32031 z"
         id="path4294"
         inkscape:connector-curvature="0"
         style="fill:#808080" />
      <path
         d="m 153.20508,174.04965 q -3.04688,0 -4.58985,3.00782 -1.52343,2.98828 -1.52343,9.0039 0,5.9961 1.52343,9.00391 1.54297,2.98828 4.58985,2.98828 3.0664,0 4.58984,-2.98828 1.54297,-3.00781 1.54297,-9.00391 0,-6.01562 -1.54297,-9.0039 -1.52344,-3.00782 -4.58984,-3.00782 z m 0,-3.125 q 4.90234,0 7.48047,3.88672 2.59765,3.86719 2.59765,11.25 0,7.36328 -2.59765,11.25 -2.57813,3.86719 -7.48047,3.86719 -4.90235,0 -7.5,-3.86719 -2.57813,-3.88672 -2.57813,-11.25 0,-7.38281 2.57813,-11.25 2.59765,-3.88672 7.5,-3.88672 z"
         id="path4296"
         inkscape:connector-curvature="0"
         style="fill:#808080" />
      <path
         d="m 170.91992,197.29184 6.44531,0 0,-22.24609 -7.01171,1.40625 0,-3.59375 6.97265,-1.40625 3.94531,0 0,25.83984 6.44532,0 0,3.32031 -16.79688,0 0,-3.32031 z"
         id="path4298"
         inkscape:connector-curvature="0"
         style="fill:#808080" />
      <path
         d="m 204.14258,174.04965 q -3.04688,0 -4.58985,3.00782 -1.52343,2.98828 -1.52343,9.0039 0,5.9961 1.52343,9.00391 1.54297,2.98828 4.58985,2.98828 3.0664,0 4.58984,-2.98828 1.54297,-3.00781 1.54297,-9.00391 0,-6.01562 -1.54297,-9.0039 -1.52344,-3.00782 -4.58984,-3.00782 z m 0,-3.125 q 4.90234,0 7.48047,3.88672 2.59765,3.86719 2.59765,11.25 0,7.36328 -2.59765,11.25 -2.57813,3.86719 -7.48047,3.86719 -4.90235,0 -7.5,-3.86719 -2.57813,-3.88672 -2.57813,-11.25 0,-7.38281 2.57813,-11.25 2.59765,-3.88672 7.5,-3.88672 z"
         id="path4300"
         inkscape:connector-curvature="0"
         style="fill:#808080" />
      <path
         d="m 221.85742,197.29184 6.44531,0 0,-22.24609 -7.01171,1.40625 0,-3.59375 6.97265,-1.40625 3.94531,0 0,25.83984 6.44532,0 0,3.32031 -16.79688,0 0,-3.32031 z"
         id="path4302"
         inkscape:connector-curvature="0"
         style="fill:#808080" />
      <path
         d="m 255.08008,174.04965 q -3.04688,0 -4.58985,3.00782 -1.52343,2.98828 -1.52343,9.0039 0,5.9961 1.52343,9.00391 1.54297,2.98828 4.58985,2.98828 3.0664,0 4.58984,-2.98828 1.54297,-3.00781 1.54297,-9.00391 0,-6.01562 -1.54297,-9.0039 -1.52344,-3.00782 -4.58984,-3.00782 z m 0,-3.125 q 4.90234,0 7.48047,3.88672 2.59765,3.86719 2.59765,11.25 0,7.36328 -2.59765,11.25 -2.57813,3.86719 -7.48047,3.86719 -4.90235,0 -7.5,-3.86719 -2.57813,-3.88672 -2.57813,-11.25 0,-7.38281 2.57813,-11.25 2.59765,-3.88672 7.5,-3.88672 z"
         id="path4304"
         inkscape:connector-curvature="0"
         style="fill:#808080" />
      <path
         d="m 272.79492,197.29184 6.44531,0 0,-22.24609 -7.01171,1.40625 0,-3.59375 6.97265,-1.40625 3.94531,0 0,25.83984 6.44532,0 0,3.32031 -16.79688,0 0,-3.32031 z"
         id="path4306"
         inkscape:connector-curvature="0"
         style="fill:#808080" />
      <path
         d="m 298.26367,197.29184 6.44531,0 0,-22.24609 -7.01171,1.40625 0,-3.59375 6.97265,-1.40625 3.94531,0 0,25.83984 6.44532,0 0,3.32031 -16.79688,0 0,-3.32031 z"
         id="path4308"
         inkscape:connector-curvature="0"
         style="fill:#808080" />
      <path
         d="m 323.73242,197.29184 6.44531,0 0,-22.24609 -7.01171,1.40625 0,-3.59375 6.97265,-1.40625 3.94531,0 0,25.83984 6.44532,0 0,3.32031 -16.79688,0 0,-3.32031 z"
         id="path4310"
         inkscape:connector-curvature="0"
         style="fill:#808080" />
      <path
         d="m 356.95508,174.04965 q -3.04688,0 -4.58985,3.00782 -1.52343,2.98828 -1.52343,9.0039 0,5.9961 1.52343,9.00391 1.54297,2.98828 4.58985,2.98828 3.0664,0 4.58984,-2.98828 1.54297,-3.00781 1.54297,-9.00391 0,-6.01562 -1.54297,-9.0039 -1.52344,-3.00782 -4.58984,-3.00782 z m 0,-3.125 q 4.90234,0 7.48047,3.88672 2.59765,3.86719 2.59765,11.25 0,7.36328 -2.59765,11.25 -2.57813,3.86719 -7.48047,3.86719 -4.90235,0 -7.5,-3.86719 -2.57813,-3.88672 -2.57813,-11.25 0,-7.38281 2.57813,-11.25 2.59765,-3.88672 7.5,-3.88672 z"
         id="path4312"
         inkscape:connector-curvature="0"
         style="fill:#808080" />
      <path
         d="m 374.66992,197.29184 6.44531,0 0,-22.24609 -7.01171,1.40625 0,-3.59375 6.97265,-1.40625 3.94531,0 0,25.83984 6.44532,0 0,3.32031 -16.79688,0 0,-3.32031 z"
         id="path4314"
         inkscape:connector-curvature="0"
         style="fill:#808080" />
      <path
         d="m 407.89258,174.04965 q -3.04688,0 -4.58985,3.00782 -1.52343,2.98828 -1.52343,9.0039 0,5.9961 1.52343,9.00391 1.54297,2.98828 4.58985,2.98828 3.0664,0 4.58984,-2.98828 1.54297,-3.00781 1.54297,-9.00391 0,-6.01562 -1.54297,-9.0039 -1.52344,-3.00782 -4.58984,-3.00782 z m 0,-3.125 q 4.90234,0 7.48047,3.88672 2.59765,3.86719 2.59765,11.25 0,7.36328 -2.59765,11.25 -2.57813,3.86719 -7.48047,3.86719 -4.90235,0 -7.5,-3.86719 -2.57813,-3.88672 -2.57813,-11.25 0,-7.38281 2.57813,-11.25 2.59765,-3.88672 7.5,-3.88672 z"
         id="path4316"
         inkscape:connector-curvature="0"
         style="fill:#808080" />
      <path
         d="m 425.60742,197.29184 6.44531,0 0,-22.24609 -7.01171,1.40625 0,-3.59375 6.97265,-1.40625 3.94531,0 0,25.83984 6.44532,0 0,3.32031 -16.79688,0 0,-3.32031 z"
         id="path4318"
         inkscape:connector-curvature="0"
         style="fill:#808080" />
      <path
         d="m 458.83008,174.04965 q -3.04688,0 -4.58985,3.00782 -1.52343,2.98828 -1.52343,9.0039 0,5.9961 1.52343,9.00391 1.54297,2.98828 4.58985,2.98828 3.0664,0 4.58984,-2.98828 1.54297,-3.00781 1.54297,-9.00391 0,-6.01562 -1.54297,-9.0039 -1.52344,-3.00782 -4.58984,-3.00782 z m 0,-3.125 q 4.90234,0 7.48047,3.88672 2.59765,3.86719 2.59765,11.25 0,7.36328 -2.59765,11.25 -2.57813,3.86719 -7.48047,3.86719 -4.90235,0 -7.5,-3.86719 -2.57813,-3.88672 -2.57813,-11.25 0,-7.38281 2.57813,-11.25 2.59765,-3.88672 7.5,-3.88672 z"
         id="path4320"
         inkscape:connector-curvature="0"
         style="fill:#808080" />
      <path
         d="m 119.98242,247.29184 6.44531,0 0,-22.24609 -7.01171,1.40625 0,-3.59375 6.97265,-1.40625 3.94531,0 0,25.83984 6.44532,0 0,3.32031 -16.79688,0 0,-3.32031 z"
         id="path4322"
         inkscape:connector-curvature="0"
         style="fill:#808080" />
      <path
         d="m 145.45117,247.29184 6.44531,0 0,-22.24609 -7.01171,1.40625 0,-3.59375 6.97265,-1.40625 3.94531,0 0,25.83984 6.44532,0 0,3.32031 -16.79688,0 0,-3.32031 z"
         id="path4324"
         inkscape:connector-curvature="0"
         style="fill:#808080" />
      <path
         d="m 178.67383,224.04965 q -3.04688,0 -4.58985,3.00782 -1.52343,2.98828 -1.52343,9.0039 0,5.9961 1.52343,9.00391 1.54297,2.98828 4.58985,2.98828 3.0664,0 4.58984,-2.98828 1.54297,-3.00781 1.54297,-9.00391 0,-6.01562 -1.54297,-9.0039 -1.52344,-3.00782 -4.58984,-3.00782 z m 0,-3.125 q 4.90234,0 7.48047,3.88672 2.59765,3.86719 2.59765,11.25 0,7.36328 -2.59765,11.25 -2.57813,3.86719 -7.48047,3.86719 -4.90235,0 -7.5,-3.86719 -2.57813,-3.88672 -2.57813,-11.25 0,-7.38281 2.57813,-11.25 2.59765,-3.88672 7.5,-3.88672 z"
         id="path4326"
         inkscape:connector-curvature="0"
         style="fill:#808080" />
      <path
         d="m 196.38867,247.29184 6.44531,0 0,-22.24609 -7.01171,1.40625 0,-3.59375 6.97265,-1.40625 3.94531,0 0,25.83984 6.44532,0 0,3.32031 -16.79688,0 0,-3.32031 z"
         id="path4328"
         inkscape:connector-curvature="0"
         style="fill:#808080" />
      <path
         d="m 229.61133,224.04965 q -3.04688,0 -4.58985,3.00782 -1.52343,2.98828 -1.52343,9.0039 0,5.9961 1.52343,9.00391 1.54297,2.98828 4.58985,2.98828 3.0664,0 4.58984,-2.98828 1.54297,-3.00781 1.54297,-9.00391 0,-6.01562 -1.54297,-9.0039 -1.52344,-3.00782 -4.58984,-3.00782 z m 0,-3.125 q 4.90234,0 7.48047,3.88672 2.59765,3.86719 2.59765,11.25 0,7.36328 -2.59765,11.25 -2.57813,3.86719 -7.48047,3.86719 -4.90235,0 -7.5,-3.86719 -2.57813,-3.88672 -2.57813,-11.25 0,-7.38281 2.57813,-11.25 2.59765,-3.88672 7.5,-3.88672 z"
         id="path4330"
         inkscape:connector-curvature="0"
         style="fill:#808080" />
      <path
         d="m 247.32617,247.29184 6.44531,0 0,-22.24609 -7.01171,1.40625 0,-3.59375 6.97265,-1.40625 3.94531,0 0,25.83984 6.44532,0 0,3.32031 -16.79688,0 0,-3.32031 z"
         id="path4332"
         inkscape:connector-curvature="0"
         style="fill:#808080" />
      <path
         d="m 280.54883,224.04965 q -3.04688,0 -4.58985,3.00782 -1.52343,2.98828 -1.52343,9.0039 0,5.9961 1.52343,9.00391 1.54297,2.98828 4.58985,2.98828 3.0664,0 4.58984,-2.98828 1.54297,-3.00781 1.54297,-9.00391 0,-6.01562 -1.54297,-9.0039 -1.52344,-3.00782 -4.58984,-3.00782 z m 0,-3.125 q 4.90234,0 7.48047,3.88672 2.59765,3.86719 2.59765,11.25 0,7.36328 -2.59765,11.25 -2.57813,3.86719 -7.48047,3.86719 -4.90235,0 -7.5,-3.86719 -2.57813,-3.88672 -2.57813,-11.25 0,-7.38281 2.57813,-11.25 2.59765,-3.88672 7.5,-3.88672 z"
         id="path4334"
         inkscape:connector-curvature="0"
         style="fill:#808080" />
      <path
         d="m 298.26367,247.29184 6.44531,0 0,-22.24609 -7.01171,1.40625 0,-3.59375 6.97265,-1.40625 3.94531,0 0,25.83984 6.44532,0 0,3.32031 -16.79688,0 0,-3.32031 z"
         id="path4336"
         inkscape:connector-curvature="0"
         style="fill:#808080" />
      <path
         d="m 331.48633,224.04965 q -3.04688,0 -4.58985,3.00782 -1.52343,2.98828 -1.52343,9.0039 0,5.9961 1.52343,9.00391 1.54297,2.98828 4.58985,2.98828 3.0664,0 4.58984,-2.98828 1.54297,-3.00781 1.54297,-9.00391 0,-6.01562 -1.54297,-9.0039 -1.52344,-3.00782 -4.58984,-3.00782 z m 0,-3.125 q 4.90234,0 7.48047,3.88672 2.59765,3.86719 2.59765,11.25 0,7.36328 -2.59765,11.25 -2.57813,3.86719 -7.48047,3.86719 -4.90235,0 -7.5,-3.86719 -2.57813,-3.88672 -2.57813,-11.25 0,-7.38281 2.57813,-11.25 2.59765,-3.88672 7.5,-3.88672 z"
         id="path4338"
         inkscape:connector-curvature="0"
         style="fill:#808080" />
      <path
         d="m 349.20117,247.29184 6.44531,0 0,-22.24609 -7.01171,1.40625 0,-3.59375 6.97265,-1.40625 3.94531,0 0,25.83984 6.44532,0 0,3.32031 -16.79688,0 0,-3.32031 z"
         id="path4340"
         inkscape:connector-curvature="0"
         style="fill:#808080" />
      <path
         d="m 374.66992,247.29184 6.44531,0 0,-22.24609 -7.01171,1.40625 0,-3.59375 6.97265,-1.40625 3.94531,0 0,25.83984 6.44532,0 0,3.32031 -16.79688,0 0,-3.32031 z"
         id="path4342"
         inkscape:connector-curvature="0"
         style="fill:#808080" />
      <path
         d="m 407.89258,224.04965 q -3.04688,0 -4.58985,3.00782 -1.52343,2.98828 -1.52343,9.0039 0,5.9961 1.52343,9.00391 1.54297,2.98828 4.58985,2.98828 3.0664,0 4.58984,-2.98828 1.54297,-3.00781 1.54297,-9.00391 0,-6.01562 -1.54297,-9.0039 -1.52344,-3.00782 -4.58984,-3.00782 z m 0,-3.125 q 4.90234,0 7.48047,3.88672 2.59765,3.86719 2.59765,11.25 0,7.36328 -2.59765,11.25 -2.57813,3.86719 -7.48047,3.86719 -4.90235,0 -7.5,-3.86719 -2.57813,-3.88672 -2.57813,-11.25 0,-7.38281 2.57813,-11.25 2.59765,-3.88672 7.5,-3.88672 z"
         id="path4344"
         inkscape:connector-curvature="0"
         style="fill:#808080" />
      <path
         d="m 425.60742,247.29184 6.44531,0 0,-22.24609 -7.01171,1.40625 0,-3.59375 6.97265,-1.40625 3.94531,0 0,25.83984 6.44532,0 0,3.32031 -16.79688,0 0,-3.32031 z"
         id="path4346"
         inkscape:connector-curvature="0"
         style="fill:#808080" />
      <path
         d="m 458.83008,224.04965 q -3.04688,0 -4.58985,3.00782 -1.52343,2.98828 -1.52343,9.0039 0,5.9961 1.52343,9.00391 1.54297,2.98828 4.58985,2.98828 3.0664,0 4.58984,-2.98828 1.54297,-3.00781 1.54297,-9.00391 0,-6.01562 -1.54297,-9.0039 -1.52344,-3.00782 -4.58984,-3.00782 z m 0,-3.125 q 4.90234,0 7.48047,3.88672 2.59765,3.86719 2.59765,11.25 0,7.36328 -2.59765,11.25 -2.57813,3.86719 -7.48047,3.86719 -4.90235,0 -7.5,-3.86719 -2.57813,-3.88672 -2.57813,-11.25 0,-7.38281 2.57813,-11.25 2.59765,-3.88672 7.5,-3.88672 z"
         id="path4348"
         inkscape:connector-curvature="0"
         style="fill:#808080" />
      <path
         d="m 119.98242,297.29184 6.44531,0 0,-22.24609 -7.01171,1.40625 0,-3.59375 6.97265,-1.40625 3.94531,0 0,25.83984 6.44532,0 0,3.32031 -16.79688,0 0,-3.32031 z"
         id="path4350"
         inkscape:connector-curvature="0"
         style="fill:#808080" />
      <path
         d="m 153.20508,274.04965 q -3.04688,0 -4.58985,3.00782 -1.52343,2.98828 -1.52343,9.0039 0,5.9961 1.52343,9.00391 1.54297,2.98828 4.58985,2.98828 3.0664,0 4.58984,-2.98828 1.54297,-3.00781 1.54297,-9.00391 0,-6.01562 -1.54297,-9.0039 -1.52344,-3.00782 -4.58984,-3.00782 z m 0,-3.125 q 4.90234,0 7.48047,3.88672 2.59765,3.86719 2.59765,11.25 0,7.36328 -2.59765,11.25 -2.57813,3.86719 -7.48047,3.86719 -4.90235,0 -7.5,-3.86719 -2.57813,-3.88672 -2.57813,-11.25 0,-7.38281 2.57813,-11.25 2.59765,-3.88672 7.5,-3.88672 z"
         id="path4352"
         inkscape:connector-curvature="0"
         style="fill:#808080" />
      <path
         d="m 170.91992,297.29184 6.44531,0 0,-22.24609 -7.01171,1.40625 0,-3.59375 6.97265,-1.40625 3.94531,0 0,25.83984 6.44532,0 0,3.32031 -16.79688,0 0,-3.32031 z"
         id="path4354"
         inkscape:connector-curvature="0"
         style="fill:#808080" />
      <path
         d="m 204.14258,274.04965 q -3.04688,0 -4.58985,3.00782 -1.52343,2.98828 -1.52343,9.0039 0,5.9961 1.52343,9.00391 1.54297,2.98828 4.58985,2.98828 3.0664,0 4.58984,-2.98828 1.54297,-3.00781 1.54297,-9.00391 0,-6.01562 -1.54297,-9.0039 -1.52344,-3.00782 -4.58984,-3.00782 z m 0,-3.125 q 4.90234,0 7.48047,3.88672 2.59765,3.86719 2.59765,11.25 0,7.36328 -2.59765,11.25 -2.57813,3.86719 -7.48047,3.86719 -4.90235,0 -7.5,-3.86719 -2.57813,-3.88672 -2.57813,-11.25 0,-7.38281 2.57813,-11.25 2.59765,-3.88672 7.5,-3.88672 z"
         id="path4356"
         inkscape:connector-curvature="0"
         style="fill:#808080" />
      <path
         d="m 221.85742,297.29184 6.44531,0 0,-22.24609 -7.01171,1.40625 0,-3.59375 6.97265,-1.40625 3.94531,0 0,25.83984 6.44532,0 0,3.32031 -16.79688,0 0,-3.32031 z"
         id="path4358"
         inkscape:connector-curvature="0"
         style="fill:#808080" />
      <path
         d="m 247.32617,297.29184 6.44531,0 0,-22.24609 -7.01171,1.40625 0,-3.59375 6.97265,-1.40625 3.94531,0 0,25.83984 6.44532,0 0,3.32031 -16.79688,0 0,-3.32031 z"
         id="path4360"
         inkscape:connector-curvature="0"
         style="fill:#808080" />
      <path
         d="m 272.79492,297.29184 6.44531,0 0,-22.24609 -7.01171,1.40625 0,-3.59375 6.97265,-1.40625 3.94531,0 0,25.83984 6.44532,0 0,3.32031 -16.79688,0 0,-3.32031 z"
         id="path4362"
         inkscape:connector-curvature="0"
         style="fill:#808080" />
      <path
         d="m 306.01758,274.04965 q -3.04688,0 -4.58985,3.00782 -1.52343,2.98828 -1.52343,9.0039 0,5.9961 1.52343,9.00391 1.54297,2.98828 4.58985,2.98828 3.0664,0 4.58984,-2.98828 1.54297,-3.00781 1.54297,-9.00391 0,-6.01562 -1.54297,-9.0039 -1.52344,-3.00782 -4.58984,-3.00782 z m 0,-3.125 q 4.90234,0 7.48047,3.88672 2.59765,3.86719 2.59765,11.25 0,7.36328 -2.59765,11.25 -2.57813,3.86719 -7.48047,3.86719 -4.90235,0 -7.5,-3.86719 -2.57813,-3.88672 -2.57813,-11.25 0,-7.38281 2.57813,-11.25 2.59765,-3.88672 7.5,-3.88672 z"
         id="path4364"
         inkscape:connector-curvature="0"
         style="fill:#808080" />
      <path
         d="m 323.73242,297.29184 6.44531,0 0,-22.24609 -7.01171,1.40625 0,-3.59375 6.97265,-1.40625 3.94531,0 0,25.83984 6.44532,0 0,3.32031 -16.79688,0 0,-3.32031 z"
         id="path4366"
         inkscape:connector-curvature="0"
         style="fill:#808080" />
      <path
         d="m 356.95508,274.04965 q -3.04688,0 -4.58985,3.00782 -1.52343,2.98828 -1.52343,9.0039 0,5.9961 1.52343,9.00391 1.54297,2.98828 4.58985,2.98828 3.0664,0 4.58984,-2.98828 1.54297,-3.00781 1.54297,-9.00391 0,-6.01562 -1.54297,-9.0039 -1.52344,-3.00782 -4.58984,-3.00782 z m 0,-3.125 q 4.90234,0 7.48047,3.88672 2.59765,3.86719 2.59765,11.25 0,7.36328 -2.59765,11.25 -2.57813,3.86719 -7.48047,3.86719 -4.90235,0 -7.5,-3.86719 -2.57813,-3.88672 -2.57813,-11.25 0,-7.38281 2.57813,-11.25 2.59765,-3.88672 7.5,-3.88672 z"
         id="path4368"
         inkscape:connector-curvature="0"
         style="fill:#808080" />
      <path
         d="m 374.66992,297.29184 6.44531,0 0,-22.24609 -7.01171,1.40625 0,-3.59375 6.97265,-1.40625 3.94531,0 0,25.83984 6.44532,0 0,3.32031 -16.79688,0 0,-3.32031 z"
         id="path4370"
         inkscape:connector-curvature="0"
         style="fill:#808080" />
      <path
         d="m 407.89258,274.04965 q -3.04688,0 -4.58985,3.00782 -1.52343,2.98828 -1.52343,9.0039 0,5.9961 1.52343,9.00391 1.54297,2.98828 4.58985,2.98828 3.0664,0 4.58984,-2.98828 1.54297,-3.00781 1.54297,-9.00391 0,-6.01562 -1.54297,-9.0039 -1.52344,-3.00782 -4.58984,-3.00782 z m 0,-3.125 q 4.90234,0 7.48047,3.88672 2.59765,3.86719 2.59765,11.25 0,7.36328 -2.59765,11.25 -2.57813,3.86719 -7.48047,3.86719 -4.90235,0 -7.5,-3.86719 -2.57813,-3.88672 -2.57813,-11.25 0,-7.38281 2.57813,-11.25 2.59765,-3.88672 7.5,-3.88672 z"
         id="path4372"
         inkscape:connector-curvature="0"
         style="fill:#808080" />
      <path
         d="m 425.60742,297.29184 6.44531,0 0,-22.24609 -7.01171,1.40625 0,-3.59375 6.97265,-1.40625 3.94531,0 0,25.83984 6.44532,0 0,3.32031 -16.79688,0 0,-3.32031 z"
         id="path4374"
         inkscape:connector-curvature="0"
         style="fill:#808080" />
      <path
         d="m 451.07617,297.29184 6.44531,0 0,-22.24609 -7.01171,1.40625 0,-3.59375 6.97265,-1.40625 3.94531,0 0,25.83984 6.44532,0 0,3.32031 -16.79688,0 0,-3.32031 z"
         id="path4376"
         inkscape:connector-curvature="0"
         style="fill:#808080" />
      <path
         d="m 127.73633,324.04965 q -3.04688,0 -4.58985,3.00782 -1.52343,2.98828 -1.52343,9.0039 0,5.9961 1.52343,9.00391 1.54297,2.98828 4.58985,2.98828 3.0664,0 4.58984,-2.98828 1.54297,-3.00781 1.54297,-9.00391 0,-6.01562 -1.54297,-9.0039 -1.52344,-3.00782 -4.58984,-3.00782 z m 0,-3.125 q 4.90234,0 7.48047,3.88672 2.59765,3.86719 2.59765,11.25 0,7.36328 -2.59765,11.25 -2.57813,3.86719 -7.48047,3.86719 -4.90235,0 -7.5,-3.86719 -2.57813,-3.88672 -2.57813,-11.25 0,-7.38281 2.57813,-11.25 2.59765,-3.88672 7.5,-3.88672 z"
         id="path4378"
         inkscape:connector-curvature="0"
         style="fill:#808080" />
      <path
         d="m 145.45117,347.29184 6.44531,0 0,-22.24609 -7.01171,1.40625 0,-3.59375 6.97265,-1.40625 3.94531,0 0,25.83984 6.44532,0 0,3.32031 -16.79688,0 0,-3.32031 z"
         id="path4380"
         inkscape:connector-curvature="0"
         style="fill:#808080" />
      <path
         d="m 178.67383,324.04965 q -3.04688,0 -4.58985,3.00782 -1.52343,2.98828 -1.52343,9.0039 0,5.9961 1.52343,9.00391 1.54297,2.98828 4.58985,2.98828 3.0664,0 4.58984,-2.98828 1.54297,-3.00781 1.54297,-9.00391 0,-6.01562 -1.54297,-9.0039 -1.52344,-3.00782 -4.58984,-3.00782 z m 0,-3.125 q 4.90234,0 7.48047,3.88672 2.59765,3.86719 2.59765,11.25 0,7.36328 -2.59765,11.25 -2.57813,3.86719 -7.48047,3.86719 -4.90235,0 -7.5,-3.86719 -2.57813,-3.88672 -2.57813,-11.25 0,-7.38281 2.57813,-11.25 2.59765,-3.88672 7.5,-3.88672 z"
         id="path4382"
         inkscape:connector-curvature="0"
         style="fill:#808080" />
      <path
         d="m 196.38867,347.29184 6.44531,0 0,-22.24609 -7.01171,1.40625 0,-3.59375 6.97265,-1.40625 3.94531,0 0,25.83984 6.44532,0 0,3.32031 -16.79688,0 0,-3.32031 z"
         id="path4384"
         inkscape:connector-curvature="0"
         style="fill:#808080" />
      <path
         d="m 229.61133,324.04965 q -3.04688,0 -4.58985,3.00782 -1.52343,2.98828 -1.52343,9.0039 0,5.9961 1.52343,9.00391 1.54297,2.98828 4.58985,2.98828 3.0664,0 4.58984,-2.98828 1.54297,-3.00781 1.54297,-9.00391 0,-6.01562 -1.54297,-9.0039 -1.52344,-3.00782 -4.58984,-3.00782 z m 0,-3.125 q 4.90234,0 7.48047,3.88672 2.59765,3.86719 2.59765,11.25 0,7.36328 -2.59765,11.25 -2.57813,3.86719 -7.48047,3.86719 -4.90235,0 -7.5,-3.86719 -2.57813,-3.88672 -2.57813,-11.25 0,-7.38281 2.57813,-11.25 2.59765,-3.88672 7.5,-3.88672 z"
         id="path4386"
         inkscape:connector-curvature="0"
         style="fill:#808080" />
      <path
         d="m 247.32617,347.29184 6.44531,0 0,-22.24609 -7.01171,1.40625 0,-3.59375 6.97265,-1.40625 3.94531,0 0,25.83984 6.44532,0 0,3.32031 -16.79688,0 0,-3.32031 z"
         id="path4388"
         inkscape:connector-curvature="0"
         style="fill:#808080" />
      <path
         d="m 280.54883,324.04965 q -3.04688,0 -4.58985,3.00782 -1.52343,2.98828 -1.52343,9.0039 0,5.9961 1.52343,9.00391 1.54297,2.98828 4.58985,2.98828 3.0664,0 4.58984,-2.98828 1.54297,-3.00781 1.54297,-9.00391 0,-6.01562 -1.54297,-9.0039 -1.52344,-3.00782 -4.58984,-3.00782 z m 0,-3.125 q 4.90234,0 7.48047,3.88672 2.59765,3.86719 2.59765,11.25 0,7.36328 -2.59765,11.25 -2.57813,3.86719 -7.48047,3.86719 -4.90235,0 -7.5,-3.86719 -2.57813,-3.88672 -2.57813,-11.25 0,-7.38281 2.57813,-11.25 2.59765,-3.88672 7.5,-3.88672 z"
         id="path4390"
         inkscape:connector-curvature="0"
         style="fill:#808080" />
      <path
         d="m 298.26367,347.29184 6.44531,0 0,-22.24609 -7.01171,1.40625 0,-3.59375 6.97265,-1.40625 3.94531,0 0,25.83984 6.44532,0 0,3.32031 -16.79688,0 0,-3.32031 z"
         id="path4392"
         inkscape:connector-curvature="0"
         style="fill:#808080" />
      <path
         d="m 323.73242,347.29184 6.44531,0 0,-22.24609 -7.01171,1.40625 0,-3.59375 6.97265,-1.40625 3.94531,0 0,25.83984 6.44532,0 0,3.32031 -16.79688,0 0,-3.32031 z"
         id="path4394"
         inkscape:connector-curvature="0"
         style="fill:#808080" />
      <path
         d="m 356.95508,324.04965 q -3.04688,0 -4.58985,3.00782 -1.52343,2.98828 -1.52343,9.0039 0,5.9961 1.52343,9.00391 1.54297,2.98828 4.58985,2.98828 3.0664,0 4.58984,-2.98828 1.54297,-3.00781 1.54297,-9.00391 0,-6.01562 -1.54297,-9.0039 -1.52344,-3.00782 -4.58984,-3.00782 z m 0,-3.125 q 4.90234,0 7.48047,3.88672 2.59765,3.86719 2.59765,11.25 0,7.36328 -2.59765,11.25 -2.57813,3.86719 -7.48047,3.86719 -4.90235,0 -7.5,-3.86719 -2.57813,-3.88672 -2.57813,-11.25 0,-7.38281 2.57813,-11.25 2.59765,-3.88672 7.5,-3.88672 z"
         id="path4396"
         inkscape:connector-curvature="0"
         style="fill:#808080" />
      <path
         d="m 374.66992,347.29184 6.44531,0 0,-22.24609 -7.01171,1.40625 0,-3.59375 6.97265,-1.40625 3.94531,0 0,25.83984 6.44532,0 0,3.32031 -16.79688,0 0,-3.32031 z"
         id="path4398"
         inkscape:connector-curvature="0"
         style="fill:#808080" />
      <path
         d="m 407.89258,324.04965 q -3.04688,0 -4.58985,3.00782 -1.52343,2.98828 -1.52343,9.0039 0,5.9961 1.52343,9.00391 1.54297,2.98828 4.58985,2.98828 3.0664,0 4.58984,-2.98828 1.54297,-3.00781 1.54297,-9.00391 0,-6.01562 -1.54297,-9.0039 -1.52344,-3.00782 -4.58984,-3.00782 z m 0,-3.125 q 4.90234,0 7.48047,3.88672 2.59765,3.86719 2.59765,11.25 0,7.36328 -2.59765,11.25 -2.57813,3.86719 -7.48047,3.86719 -4.90235,0 -7.5,-3.86719 -2.57813,-3.88672 -2.57813,-11.25 0,-7.38281 2.57813,-11.25 2.59765,-3.88672 7.5,-3.88672 z"
         id="path4400"
         inkscape:connector-curvature="0"
         style="fill:#808080" />
      <path
         d="m 425.60742,347.29184 6.44531,0 0,-22.24609 -7.01171,1.40625 0,-3.59375 6.97265,-1.40625 3.94531,0 0,25.83984 6.44532,0 0,3.32031 -16.79688,0 0,-3.32031 z"
         id="path4402"
         inkscape:connector-curvature="0"
         style="fill:#808080" />
      <path
         d="m 458.83008,324.04965 q -3.04688,0 -4.58985,3.00782 -1.52343,2.98828 -1.52343,9.0039 0,5.9961 1.52343,9.00391 1.54297,2.98828 4.58985,2.98828 3.0664,0 4.58984,-2.98828 1.54297,-3.00781 1.54297,-9.00391 0,-6.01562 -1.54297,-9.0039 -1.52344,-3.00782 -4.58984,-3.00782 z m 0,-3.125 q 4.90234,0 7.48047,3.88672 2.59765,3.86719 2.59765,11.25 0,7.36328 -2.59765,11.25 -2.57813,3.86719 -7.48047,3.86719 -4.90235,0 -7.5,-3.86719 -2.57813,-3.88672 -2.57813,-11.25 0,-7.38281 2.57813,-11.25 2.59765,-3.88672 7.5,-3.88672 z"
         id="path4404"
         inkscape:connector-curvature="0"
         style="fill:#808080" />
      <path
         d="m 119.98242,397.29184 6.44531,0 0,-22.24609 -7.01171,1.40625 0,-3.59375 6.97265,-1.40625 3.94531,0 0,25.83984 6.44532,0 0,3.32031 -16.79688,0 0,-3.32031 z"
         id="path4406"
         inkscape:connector-curvature="0"
         style="fill:#808080" />
      <path
         d="m 153.20508,374.04965 q -3.04688,0 -4.58985,3.00782 -1.52343,2.98828 -1.52343,9.0039 0,5.9961 1.52343,9.00391 1.54297,2.98828 4.58985,2.98828 3.0664,0 4.58984,-2.98828 1.54297,-3.00781 1.54297,-9.00391 0,-6.01562 -1.54297,-9.0039 -1.52344,-3.00782 -4.58984,-3.00782 z m 0,-3.125 q 4.90234,0 7.48047,3.88672 2.59765,3.86719 2.59765,11.25 0,7.36328 -2.59765,11.25 -2.57813,3.86719 -7.48047,3.86719 -4.90235,0 -7.5,-3.86719 -2.57813,-3.88672 -2.57813,-11.25 0,-7.38281 2.57813,-11.25 2.59765,-3.88672 7.5,-3.88672 z"
         id="path4408"
         inkscape:connector-curvature="0"
         style="fill:#808080" />
      <path
         d="m 170.91992,397.29184 6.44531,0 0,-22.24609 -7.01171,1.40625 0,-3.59375 6.97265,-1.40625 3.94531,0 0,25.83984 6.44532,0 0,3.32031 -16.79688,0 0,-3.32031 z"
         id="path4410"
         inkscape:connector-curvature="0"
         style="fill:#808080" />
      <path
         d="m 196.38867,397.29184 6.44531,0 0,-22.24609 -7.01171,1.40625 0,-3.59375 6.97265,-1.40625 3.94531,0 0,25.83984 6.44532,0 0,3.32031 -16.79688,0 0,-3.32031 z"
         id="path4412"
         inkscape:connector-curvature="0"
         style="fill:#808080" />
      <path
         d="m 221.85742,397.29184 6.44531,0 0,-22.24609 -7.01171,1.40625 0,-3.59375 6.97265,-1.40625 3.94531,0 0,25.83984 6.44532,0 0,3.32031 -16.79688,0 0,-3.32031 z"
         id="path4414"
         inkscape:connector-curvature="0"
         style="fill:#808080" />
      <path
         d="m 255.08008,374.04965 q -3.04688,0 -4.58985,3.00782 -1.52343,2.98828 -1.52343,9.0039 0,5.9961 1.52343,9.00391 1.54297,2.98828 4.58985,2.98828 3.0664,0 4.58984,-2.98828 1.54297,-3.00781 1.54297,-9.00391 0,-6.01562 -1.54297,-9.0039 -1.52344,-3.00782 -4.58984,-3.00782 z m 0,-3.125 q 4.90234,0 7.48047,3.88672 2.59765,3.86719 2.59765,11.25 0,7.36328 -2.59765,11.25 -2.57813,3.86719 -7.48047,3.86719 -4.90235,0 -7.5,-3.86719 -2.57813,-3.88672 -2.57813,-11.25 0,-7.38281 2.57813,-11.25 2.59765,-3.88672 7.5,-3.88672 z"
         id="path4416"
         inkscape:connector-curvature="0"
         style="fill:#808080" />
      <path
         d="m 272.79492,397.29184 6.44531,0 0,-22.24609 -7.01171,1.40625 0,-3.59375 6.97265,-1.40625 3.94531,0 0,25.83984 6.44532,0 0,3.32031 -16.79688,0 0,-3.32031 z"
         id="path4418"
         inkscape:connector-curvature="0"
         style="fill:#808080" />
      <path
         d="m 306.01758,374.04965 q -3.04688,0 -4.58985,3.00782 -1.52343,2.98828 -1.52343,9.0039 0,5.9961 1.52343,9.00391 1.54297,2.98828 4.58985,2.98828 3.0664,0 4.58984,-2.98828 1.54297,-3.00781 1.54297,-9.00391 0,-6.01562 -1.54297,-9.0039 -1.52344,-3.00782 -4.58984,-3.00782 z m 0,-3.125 q 4.90234,0 7.48047,3.88672 2.59765,3.86719 2.59765,11.25 0,7.36328 -2.59765,11.25 -2.57813,3.86719 -7.48047,3.86719 -4.90235,0 -7.5,-3.86719 -2.57813,-3.88672 -2.57813,-11.25 0,-7.38281 2.57813,-11.25 2.59765,-3.88672 7.5,-3.88672 z"
         id="path4420"
         inkscape:connector-curvature="0"
         style="fill:#808080" />
      <path
         d="m 323.73242,397.29184 6.44531,0 0,-22.24609 -7.01171,1.40625 0,-3.59375 6.97265,-1.40625 3.94531,0 0,25.83984 6.44532,0 0,3.32031 -16.79688,0 0,-3.32031 z"
         id="path4422"
         inkscape:connector-curvature="0"
         style="fill:#808080" />
      <path
         d="m 356.95508,374.04965 q -3.04688,0 -4.58985,3.00782 -1.52343,2.98828 -1.52343,9.0039 0,5.9961 1.52343,9.00391 1.54297,2.98828 4.58985,2.98828 3.0664,0 4.58984,-2.98828 1.54297,-3.00781 1.54297,-9.00391 0,-6.01562 -1.54297,-9.0039 -1.52344,-3.00782 -4.58984,-3.00782 z m 0,-3.125 q 4.90234,0 7.48047,3.88672 2.59765,3.86719 2.59765,11.25 0,7.36328 -2.59765,11.25 -2.57813,3.86719 -7.48047,3.86719 -4.90235,0 -7.5,-3.86719 -2.57813,-3.88672 -2.57813,-11.25 0,-7.38281 2.57813,-11.25 2.59765,-3.88672 7.5,-3.88672 z"
         id="path4424"
         inkscape:connector-curvature="0"
         style="fill:#808080" />
      <path
         d="m 374.66992,397.29184 6.44531,0 0,-22.24609 -7.01171,1.40625 0,-3.59375 6.97265,-1.40625 3.94531,0 0,25.83984 6.44532,0 0,3.32031 -16.79688,0 0,-3.32031 z"
         id="path4426"
         inkscape:connector-curvature="0"
         style="fill:#808080" />
      <path
         d="m 400.13867,397.29184 6.44531,0 0,-22.24609 -7.01171,1.40625 0,-3.59375 6.97265,-1.40625 3.94531,0 0,25.83984 6.44532,0 0,3.32031 -16.79688,0 0,-3.32031 z"
         id="path4428"
         inkscape:connector-curvature="0"
         style="fill:#808080" />
      <path
         d="m 433.36133,374.04965 q -3.04688,0 -4.58985,3.00782 -1.52343,2.98828 -1.52343,9.0039 0,5.9961 1.52343,9.00391 1.54297,2.98828 4.58985,2.98828 3.0664,0 4.58984,-2.98828 1.54297,-3.00781 1.54297,-9.00391 0,-6.01562 -1.54297,-9.0039 -1.52344,-3.00782 -4.58984,-3.00782 z m 0,-3.125 q 4.90234,0 7.48047,3.88672 2.59765,3.86719 2.59765,11.25 0,7.36328 -2.59765,11.25 -2.57813,3.86719 -7.48047,3.86719 -4.90235,0 -7.5,-3.86719 -2.57813,-3.88672 -2.57813,-11.25 0,-7.38281 2.57813,-11.25 2.59765,-3.88672 7.5,-3.88672 z"
         id="path4430"
         inkscape:connector-curvature="0"
         style="fill:#808080" />
      <path
         d="m 451.07617,397.29184 6.44531,0 0,-22.24609 -7.01171,1.40625 0,-3.59375 6.97265,-1.40625 3.94531,0 0,25.83984 6.44532,0 0,3.32031 -16.79688,0 0,-3.32031 z"
         id="path4432"
         inkscape:connector-curvature="0"
         style="fill:#808080" />
      <path
         d="m 127.73633,424.04965 q -3.04688,0 -4.58985,3.00782 -1.52343,2.98828 -1.52343,9.0039 0,5.9961 1.52343,9.00391 1.54297,2.98828 4.58985,2.98828 3.0664,0 4.58984,-2.98828 1.54297,-3.00781 1.54297,-9.00391 0,-6.01562 -1.54297,-9.0039 -1.52344,-3.00782 -4.58984,-3.00782 z m 0,-3.125 q 4.90234,0 7.48047,3.88672 2.59765,3.86719 2.59765,11.25 0,7.36328 -2.59765,11.25 -2.57813,3.86719 -7.48047,3.86719 -4.90235,0 -7.5,-3.86719 -2.57813,-3.88672 -2.57813,-11.25 0,-7.38281 2.57813,-11.25 2.59765,-3.88672 7.5,-3.88672 z"
         id="path4434"
         inkscape:connector-curvature="0"
         style="fill:#808080" />
      <path
         d="m 145.45117,447.29184 6.44531,0 0,-22.24609 -7.01171,1.40625 0,-3.59375 6.97265,-1.40625 3.94531,0 0,25.83984 6.44532,0 0,3.32031 -16.79688,0 0,-3.32031 z"
         id="path4436"
         inkscape:connector-curvature="0"
         style="fill:#808080" />
      <path
         d="m 178.67383,424.04965 q -3.04688,0 -4.58985,3.00782 -1.52343,2.98828 -1.52343,9.0039 0,5.9961 1.52343,9.00391 1.54297,2.98828 4.58985,2.98828 3.0664,0 4.58984,-2.98828 1.54297,-3.00781 1.54297,-9.00391 0,-6.01562 -1.54297,-9.0039 -1.52344,-3.00782 -4.58984,-3.00782 z m 0,-3.125 q 4.90234,0 7.48047,3.88672 2.59765,3.86719 2.59765,11.25 0,7.36328 -2.59765,11.25 -2.57813,3.86719 -7.48047,3.86719 -4.90235,0 -7.5,-3.86719 -2.57813,-3.88672 -2.57813,-11.25 0,-7.38281 2.57813,-11.25 2.59765,-3.88672 7.5,-3.88672 z"
         id="path4438"
         inkscape:connector-curvature="0"
         style="fill:#808080" />
      <path
         d="m 196.38867,447.29184 6.44531,0 0,-22.24609 -7.01171,1.40625 0,-3.59375 6.97265,-1.40625 3.94531,0 0,25.83984 6.44532,0 0,3.32031 -16.79688,0 0,-3.32031 z"
         id="path4440"
         inkscape:connector-curvature="0"
         style="fill:#808080" />
      <path
         d="m 229.61133,424.04965 q -3.04688,0 -4.58985,3.00782 -1.52343,2.98828 -1.52343,9.0039 0,5.9961 1.52343,9.00391 1.54297,2.98828 4.58985,2.98828 3.0664,0 4.58984,-2.98828 1.54297,-3.00781 1.54297,-9.00391 0,-6.01562 -1.54297,-9.0039 -1.52344,-3.00782 -4.58984,-3.00782 z m 0,-3.125 q 4.90234,0 7.48047,3.88672 2.59765,3.86719 2.59765,11.25 0,7.36328 -2.59765,11.25 -2.57813,3.86719 -7.48047,3.86719 -4.90235,0 -7.5,-3.86719 -2.57813,-3.88672 -2.57813,-11.25 0,-7.38281 2.57813,-11.25 2.59765,-3.88672 7.5,-3.88672 z"
         id="path4442"
         inkscape:connector-curvature="0"
         style="fill:#808080" />
      <path
         d="m 247.32617,447.29184 6.44531,0 0,-22.24609 -7.01171,1.40625 0,-3.59375 6.97265,-1.40625 3.94531,0 0,25.83984 6.44532,0 0,3.32031 -16.79688,0 0,-3.32031 z"
         id="path4444"
         inkscape:connector-curvature="0"
         style="fill:#808080" />
      <path
         d="m 272.79492,447.29184 6.44531,0 0,-22.24609 -7.01171,1.40625 0,-3.59375 6.97265,-1.40625 3.94531,0 0,25.83984 6.44532,0 0,3.32031 -16.79688,0 0,-3.32031 z"
         id="path4446"
         inkscape:connector-curvature="0"
         style="fill:#808080" />
      <path
         d="m 306.01758,424.04965 q -3.04688,0 -4.58985,3.00782 -1.52343,2.98828 -1.52343,9.0039 0,5.9961 1.52343,9.00391 1.54297,2.98828 4.58985,2.98828 3.0664,0 4.58984,-2.98828 1.54297,-3.00781 1.54297,-9.00391 0,-6.01562 -1.54297,-9.0039 -1.52344,-3.00782 -4.58984,-3.00782 z m 0,-3.125 q 4.90234,0 7.48047,3.88672 2.59765,3.86719 2.59765,11.25 0,7.36328 -2.59765,11.25 -2.57813,3.86719 -7.48047,3.86719 -4.90235,0 -7.5,-3.86719 -2.57813,-3.88672 -2.57813,-11.25 0,-7.38281 2.57813,-11.25 2.59765,-3.88672 7.5,-3.88672 z"
         id="path4448"
         inkscape:connector-curvature="0"
         style="fill:#808080" />
      <path
         d="m 323.73242,447.29184 6.44531,0 0,-22.24609 -7.01171,1.40625 0,-3.59375 6.97265,-1.40625 3.94531,0 0,25.83984 6.44532,0 0,3.32031 -16.79688,0 0,-3.32031 z"
         id="path4450"
         inkscape:connector-curvature="0"
         style="fill:#808080" />
      <path
         d="m 356.95508,424.04965 q -3.04688,0 -4.58985,3.00782 -1.52343,2.98828 -1.52343,9.0039 0,5.9961 1.52343,9.00391 1.54297,2.98828 4.58985,2.98828 3.0664,0 4.58984,-2.98828 1.54297,-3.00781 1.54297,-9.00391 0,-6.01562 -1.54297,-9.0039 -1.52344,-3.00782 -4.58984,-3.00782 z m 0,-3.125 q 4.90234,0 7.48047,3.88672 2.59765,3.86719 2.59765,11.25 0,7.36328 -2.59765,11.25 -2.57813,3.86719 -7.48047,3.86719 -4.90235,0 -7.5,-3.86719 -2.57813,-3.88672 -2.57813,-11.25 0,-7.38281 2.57813,-11.25 2.59765,-3.88672 7.5,-3.88672 z"
         id="path4452"
         inkscape:connector-curvature="0"
         style="fill:#808080" />
      <path
         d="m 374.66992,447.29184 6.44531,0 0,-22.24609 -7.01171,1.40625 0,-3.59375 6.97265,-1.40625 3.94531,0 0,25.83984 6.44532,0 0,3.32031 -16.79688,0 0,-3.32031 z"
         id="path4454"
         inkscape:connector-curvature="0"
         style="fill:#808080" />
      <path
         d="m 407.89258,424.04965 q -3.04688,0 -4.58985,3.00782 -1.52343,2.98828 -1.52343,9.0039 0,5.9961 1.52343,9.00391 1.54297,2.98828 4.58985,2.98828 3.0664,0 4.58984,-2.98828 1.54297,-3.00781 1.54297,-9.00391 0,-6.01562 -1.54297,-9.0039 -1.52344,-3.00782 -4.58984,-3.00782 z m 0,-3.125 q 4.90234,0 7.48047,3.88672 2.59765,3.86719 2.59765,11.25 0,7.36328 -2.59765,11.25 -2.57813,3.86719 -7.48047,3.86719 -4.90235,0 -7.5,-3.86719 -2.57813,-3.88672 -2.57813,-11.25 0,-7.38281 2.57813,-11.25 2.59765,-3.88672 7.5,-3.88672 z"
         id="path4456"
         inkscape:connector-curvature="0"
         style="fill:#808080" />
      <path
         d="m 425.60742,447.29184 6.44531,0 0,-22.24609 -7.01171,1.40625 0,-3.59375 6.97265,-1.40625 3.94531,0 0,25.83984 6.44532,0 0,3.32031 -16.79688,0 0,-3.32031 z"
         id="path4458"
         inkscape:connector-curvature="0"
         style="fill:#808080" />
      <path
         d="m 458.83008,424.04965 q -3.04688,0 -4.58985,3.00782 -1.52343,2.98828 -1.52343,9.0039 0,5.9961 1.52343,9.00391 1.54297,2.98828 4.58985,2.98828 3.0664,0 4.58984,-2.98828 1.54297,-3.00781 1.54297,-9.00391 0,-6.01562 -1.54297,-9.0039 -1.52344,-3.00782 -4.58984,-3.00782 z m 0,-3.125 q 4.90234,0 7.48047,3.88672 2.59765,3.86719 2.59765,11.25 0,7.36328 -2.59765,11.25 -2.57813,3.86719 -7.48047,3.86719 -4.90235,0 -7.5,-3.86719 -2.57813,-3.88672 -2.57813,-11.25 0,-7.38281 2.57813,-11.25 2.59765,-3.88672 7.5,-3.88672 z"
         id="path4460"
         inkscape:connector-curvature="0"
         style="fill:#808080" />
      <path
         d="m 119.98242,497.29184 6.44531,0 0,-22.24609 -7.01171,1.40625 0,-3.59375 6.97265,-1.40625 3.94531,0 0,25.83984 6.44532,0 0,3.32031 -16.79688,0 0,-3.32031 z"
         id="path4462"
         inkscape:connector-curvature="0"
         style="fill:#808080" />
      <path
         d="m 145.45117,497.29184 6.44531,0 0,-22.24609 -7.01171,1.40625 0,-3.59375 6.97265,-1.40625 3.94531,0 0,25.83984 6.44532,0 0,3.32031 -16.79688,0 0,-3.32031 z"
         id="path4464"
         inkscape:connector-curvature="0"
         style="fill:#808080" />
      <path
         d="m 170.91992,497.29184 6.44531,0 0,-22.24609 -7.01171,1.40625 0,-3.59375 6.97265,-1.40625 3.94531,0 0,25.83984 6.44532,0 0,3.32031 -16.79688,0 0,-3.32031 z"
         id="path4466"
         inkscape:connector-curvature="0"
         style="fill:#808080" />
      <path
         d="m 204.14258,474.04965 q -3.04688,0 -4.58985,3.00782 -1.52343,2.98828 -1.52343,9.0039 0,5.9961 1.52343,9.00391 1.54297,2.98828 4.58985,2.98828 3.0664,0 4.58984,-2.98828 1.54297,-3.00781 1.54297,-9.00391 0,-6.01562 -1.54297,-9.0039 -1.52344,-3.00782 -4.58984,-3.00782 z m 0,-3.125 q 4.90234,0 7.48047,3.88672 2.59765,3.86719 2.59765,11.25 0,7.36328 -2.59765,11.25 -2.57813,3.86719 -7.48047,3.86719 -4.90235,0 -7.5,-3.86719 -2.57813,-3.88672 -2.57813,-11.25 0,-7.38281 2.57813,-11.25 2.59765,-3.88672 7.5,-3.88672 z"
         id="path4468"
         inkscape:connector-curvature="0"
         style="fill:#808080" />
      <path
         d="m 221.85742,497.29184 6.44531,0 0,-22.24609 -7.01171,1.40625 0,-3.59375 6.97265,-1.40625 3.94531,0 0,25.83984 6.44532,0 0,3.32031 -16.79688,0 0,-3.32031 z"
         id="path4470"
         inkscape:connector-curvature="0"
         style="fill:#808080" />
      <path
         d="m 255.08008,474.04965 q -3.04688,0 -4.58985,3.00782 -1.52343,2.98828 -1.52343,9.0039 0,5.9961 1.52343,9.00391 1.54297,2.98828 4.58985,2.98828 3.0664,0 4.58984,-2.98828 1.54297,-3.00781 1.54297,-9.00391 0,-6.01562 -1.54297,-9.0039 -1.52344,-3.00782 -4.58984,-3.00782 z m 0,-3.125 q 4.90234,0 7.48047,3.88672 2.59765,3.86719 2.59765,11.25 0,7.36328 -2.59765,11.25 -2.57813,3.86719 -7.48047,3.86719 -4.90235,0 -7.5,-3.86719 -2.57813,-3.88672 -2.57813,-11.25 0,-7.38281 2.57813,-11.25 2.59765,-3.88672 7.5,-3.88672 z"
         id="path4472"
         inkscape:connector-curvature="0"
         style="fill:#808080" />
      <path
         d="m 272.79492,497.29184 6.44531,0 0,-22.24609 -7.01171,1.40625 0,-3.59375 6.97265,-1.40625 3.94531,0 0,25.83984 6.44532,0 0,3.32031 -16.79688,0 0,-3.32031 z"
         id="path4474"
         inkscape:connector-curvature="0"
         style="fill:#808080" />
      <path
         d="m 306.01758,474.04965 q -3.04688,0 -4.58985,3.00782 -1.52343,2.98828 -1.52343,9.0039 0,5.9961 1.52343,9.00391 1.54297,2.98828 4.58985,2.98828 3.0664,0 4.58984,-2.98828 1.54297,-3.00781 1.54297,-9.00391 0,-6.01562 -1.54297,-9.0039 -1.52344,-3.00782 -4.58984,-3.00782 z m 0,-3.125 q 4.90234,0 7.48047,3.88672 2.59765,3.86719 2.59765,11.25 0,7.36328 -2.59765,11.25 -2.57813,3.86719 -7.48047,3.86719 -4.90235,0 -7.5,-3.86719 -2.57813,-3.88672 -2.57813,-11.25 0,-7.38281 2.57813,-11.25 2.59765,-3.88672 7.5,-3.88672 z"
         id="path4476"
         inkscape:connector-curvature="0"
         style="fill:#808080" />
      <path
         d="m 323.73242,497.29184 6.44531,0 0,-22.24609 -7.01171,1.40625 0,-3.59375 6.97265,-1.40625 3.94531,0 0,25.83984 6.44532,0 0,3.32031 -16.79688,0 0,-3.32031 z"
         id="path4478"
         inkscape:connector-curvature="0"
         style="fill:#808080" />
      <path
         d="m 349.20117,497.29184 6.44531,0 0,-22.24609 -7.01171,1.40625 0,-3.59375 6.97265,-1.40625 3.94531,0 0,25.83984 6.44532,0 0,3.32031 -16.79688,0 0,-3.32031 z"
         id="path4480"
         inkscape:connector-curvature="0"
         style="fill:#808080" />
      <path
         d="m 382.42383,474.04965 q -3.04688,0 -4.58985,3.00782 -1.52343,2.98828 -1.52343,9.0039 0,5.9961 1.52343,9.00391 1.54297,2.98828 4.58985,2.98828 3.0664,0 4.58984,-2.98828 1.54297,-3.00781 1.54297,-9.00391 0,-6.01562 -1.54297,-9.0039 -1.52344,-3.00782 -4.58984,-3.00782 z m 0,-3.125 q 4.90234,0 7.48047,3.88672 2.59765,3.86719 2.59765,11.25 0,7.36328 -2.59765,11.25 -2.57813,3.86719 -7.48047,3.86719 -4.90235,0 -7.5,-3.86719 -2.57813,-3.88672 -2.57813,-11.25 0,-7.38281 2.57813,-11.25 2.59765,-3.88672 7.5,-3.88672 z"
         id="path4482"
         inkscape:connector-curvature="0"
         style="fill:#808080" />
      <path
         d="m 400.13867,497.29184 6.44531,0 0,-22.24609 -7.01171,1.40625 0,-3.59375 6.97265,-1.40625 3.94531,0 0,25.83984 6.44532,0 0,3.32031 -16.79688,0 0,-3.32031 z"
         id="path4484"
         inkscape:connector-curvature="0"
         style="fill:#808080" />
      <path
         d="m 433.36133,474.04965 q -3.04688,0 -4.58985,3.00782 -1.52343,2.98828 -1.52343,9.0039 0,5.9961 1.52343,9.00391 1.54297,2.98828 4.58985,2.98828 3.0664,0 4.58984,-2.98828 1.54297,-3.00781 1.54297,-9.00391 0,-6.01562 -1.54297,-9.0039 -1.52344,-3.00782 -4.58984,-3.00782 z m 0,-3.125 q 4.90234,0 7.48047,3.88672 2.59765,3.86719 2.59765,11.25 0,7.36328 -2.59765,11.25 -2.57813,3.86719 -7.48047,3.86719 -4.90235,0 -7.5,-3.86719 -2.57813,-3.88672 -2.57813,-11.25 0,-7.38281 2.57813,-11.25 2.59765,-3.88672 7.5,-3.88672 z"
         id="path4486"
         inkscape:connector-curvature="0"
         style="fill:#808080" />
      <path
         d="m 451.07617,497.29184 6.44531,0 0,-22.24609 -7.01171,1.40625 0,-3.59375 6.97265,-1.40625 3.94531,0 0,25.83984 6.44532,0 0,3.32031 -16.79688,0 0,-3.32031 z"
         id="path4488"
         inkscape:connector-curvature="0"
         style="fill:#808080" />
      <path
         d="m 127.73633,524.04965 q -3.04688,0 -4.58985,3.00782 -1.52343,2.98828 -1.52343,9.0039 0,5.9961 1.52343,9.00391 1.54297,2.98828 4.58985,2.98828 3.0664,0 4.58984,-2.98828 1.54297,-3.00781 1.54297,-9.00391 0,-6.01562 -1.54297,-9.0039 -1.52344,-3.00782 -4.58984,-3.00782 z m 0,-3.125 q 4.90234,0 7.48047,3.88672 2.59765,3.86719 2.59765,11.25 0,7.36328 -2.59765,11.25 -2.57813,3.86719 -7.48047,3.86719 -4.90235,0 -7.5,-3.86719 -2.57813,-3.88672 -2.57813,-11.25 0,-7.38281 2.57813,-11.25 2.59765,-3.88672 7.5,-3.88672 z"
         id="path4490"
         inkscape:connector-curvature="0"
         style="fill:#808080" />
      <path
         d="m 145.45117,547.29184 6.44531,0 0,-22.24609 -7.01171,1.40625 0,-3.59375 6.97265,-1.40625 3.94531,0 0,25.83984 6.44532,0 0,3.32031 -16.79688,0 0,-3.32031 z"
         id="path4492"
         inkscape:connector-curvature="0"
         style="fill:#808080" />
      <path
         d="m 178.67383,524.04965 q -3.04688,0 -4.58985,3.00782 -1.52343,2.98828 -1.52343,9.0039 0,5.9961 1.52343,9.00391 1.54297,2.98828 4.58985,2.98828 3.0664,0 4.58984,-2.98828 1.54297,-3.00781 1.54297,-9.00391 0,-6.01562 -1.54297,-9.0039 -1.52344,-3.00782 -4.58984,-3.00782 z m 0,-3.125 q 4.90234,0 7.48047,3.88672 2.59765,3.86719 2.59765,11.25 0,7.36328 -2.59765,11.25 -2.57813,3.86719 -7.48047,3.86719 -4.90235,0 -7.5,-3.86719 -2.57813,-3.88672 -2.57813,-11.25 0,-7.38281 2.57813,-11.25 2.59765,-3.88672 7.5,-3.88672 z"
         id="path4494"
         inkscape:connector-curvature="0"
         style="fill:#808080" />
      <path
         d="m 196.38867,547.29184 6.44531,0 0,-22.24609 -7.01171,1.40625 0,-3.59375 6.97265,-1.40625 3.94531,0 0,25.83984 6.44532,0 0,3.32031 -16.79688,0 0,-3.32031 z"
         id="path4496"
         inkscape:connector-curvature="0"
         style="fill:#808080" />
      <path
         d="m 221.85742,547.29184 6.44531,0 0,-22.24609 -7.01171,1.40625 0,-3.59375 6.97265,-1.40625 3.94531,0 0,25.83984 6.44532,0 0,3.32031 -16.79688,0 0,-3.32031 z"
         id="path4498"
         inkscape:connector-curvature="0"
         style="fill:#808080" />
      <path
         d="m 255.08008,524.04965 q -3.04688,0 -4.58985,3.00782 -1.52343,2.98828 -1.52343,9.0039 0,5.9961 1.52343,9.00391 1.54297,2.98828 4.58985,2.98828 3.0664,0 4.58984,-2.98828 1.54297,-3.00781 1.54297,-9.00391 0,-6.01562 -1.54297,-9.0039 -1.52344,-3.00782 -4.58984,-3.00782 z m 0,-3.125 q 4.90234,0 7.48047,3.88672 2.59765,3.86719 2.59765,11.25 0,7.36328 -2.59765,11.25 -2.57813,3.86719 -7.48047,3.86719 -4.90235,0 -7.5,-3.86719 -2.57813,-3.88672 -2.57813,-11.25 0,-7.38281 2.57813,-11.25 2.59765,-3.88672 7.5,-3.88672 z"
         id="path4500"
         inkscape:connector-curvature="0"
         style="fill:#808080" />
      <path
         d="m 272.79492,547.29184 6.44531,0 0,-22.24609 -7.01171,1.40625 0,-3.59375 6.97265,-1.40625 3.94531,0 0,25.83984 6.44532,0 0,3.32031 -16.79688,0 0,-3.32031 z"
         id="path4502"
         inkscape:connector-curvature="0"
         style="fill:#808080" />
      <path
         d="m 306.01758,524.04965 q -3.04688,0 -4.58985,3.00782 -1.52343,2.98828 -1.52343,9.0039 0,5.9961 1.52343,9.00391 1.54297,2.98828 4.58985,2.98828 3.0664,0 4.58984,-2.98828 1.54297,-3.00781 1.54297,-9.00391 0,-6.01562 -1.54297,-9.0039 -1.52344,-3.00782 -4.58984,-3.00782 z m 0,-3.125 q 4.90234,0 7.48047,3.88672 2.59765,3.86719 2.59765,11.25 0,7.36328 -2.59765,11.25 -2.57813,3.86719 -7.48047,3.86719 -4.90235,0 -7.5,-3.86719 -2.57813,-3.88672 -2.57813,-11.25 0,-7.38281 2.57813,-11.25 2.59765,-3.88672 7.5,-3.88672 z"
         id="path4504"
         inkscape:connector-curvature="0"
         style="fill:#808080" />
      <path
         d="m 323.73242,547.29184 6.44531,0 0,-22.24609 -7.01171,1.40625 0,-3.59375 6.97265,-1.40625 3.94531,0 0,25.83984 6.44532,0 0,3.32031 -16.79688,0 0,-3.32031 z"
         id="path4506"
         inkscape:connector-curvature="0"
         style="fill:#808080" />
      <path
         d="m 356.95508,524.04965 q -3.04688,0 -4.58985,3.00782 -1.52343,2.98828 -1.52343,9.0039 0,5.9961 1.52343,9.00391 1.54297,2.98828 4.58985,2.98828 3.0664,0 4.58984,-2.98828 1.54297,-3.00781 1.54297,-9.00391 0,-6.01562 -1.54297,-9.0039 -1.52344,-3.00782 -4.58984,-3.00782 z m 0,-3.125 q 4.90234,0 7.48047,3.88672 2.59765,3.86719 2.59765,11.25 0,7.36328 -2.59765,11.25 -2.57813,3.86719 -7.48047,3.86719 -4.90235,0 -7.5,-3.86719 -2.57813,-3.88672 -2.57813,-11.25 0,-7.38281 2.57813,-11.25 2.59765,-3.88672 7.5,-3.88672 z"
         id="path4508"
         inkscape:connector-curvature="0"
         style="fill:#808080" />
      <path
         d="m 374.66992,547.29184 6.44531,0 0,-22.24609 -7.01171,1.40625 0,-3.59375 6.97265,-1.40625 3.94531,0 0,25.83984 6.44532,0 0,3.32031 -16.79688,0 0,-3.32031 z"
         id="path4510"
         inkscape:connector-curvature="0"
         style="fill:#808080" />
      <path
         d="m 407.89258,524.04965 q -3.04688,0 -4.58985,3.00782 -1.52343,2.98828 -1.52343,9.0039 0,5.9961 1.52343,9.00391 1.54297,2.98828 4.58985,2.98828 3.0664,0 4.58984,-2.98828 1.54297,-3.00781 1.54297,-9.00391 0,-6.01562 -1.54297,-9.0039 -1.52344,-3.00782 -4.58984,-3.00782 z m 0,-3.125 q 4.90234,0 7.48047,3.88672 2.59765,3.86719 2.59765,11.25 0,7.36328 -2.59765,11.25 -2.57813,3.86719 -7.48047,3.86719 -4.90235,0 -7.5,-3.86719 -2.57813,-3.88672 -2.57813,-11.25 0,-7.38281 2.57813,-11.25 2.59765,-3.88672 7.5,-3.88672 z"
         id="path4512"
         inkscape:connector-curvature="0"
         style="fill:#808080" />
      <path
         d="m 425.60742,547.29184 6.44531,0 0,-22.24609 -7.01171,1.40625 0,-3.59375 6.97265,-1.40625 3.94531,0 0,25.83984 6.44532,0 0,3.32031 -16.79688,0 0,-3.32031 z"
         id="path4514"
         inkscape:connector-curvature="0"
         style="fill:#808080" />
      <path
         d="m 451.07617,547.29184 6.44531,0 0,-22.24609 -7.01171,1.40625 0,-3.59375 6.97265,-1.40625 3.94531,0 0,25.83984 6.44532,0 0,3.32031 -16.79688,0 0,-3.32031 z"
         id="path4516"
         inkscape:connector-curvature="0"
         style="fill:#808080" />
    </g>
  </g>
</svg>
